<svg width="150" height="40" viewBox="0 0 150 40" fill="none" xmlns="http://www.w3.org/2000/svg">
<path d="M27.8016 17.0172C30.6893 17.0172 31.339 18.2563 31.339 19.8018C31.339 21.4399 30.5532 22.6136 27.8136 22.6136C25.0915 22.6136 24.3047 21.5081 24.3047 19.8018C24.3047 18.1227 25.1624 17.0172 27.8016 17.0172Z" fill="white"/>
<path d="M57.9774 17.0172C60.8651 17.0172 61.5148 18.2563 61.5148 19.8018C61.5148 21.4399 60.728 22.6136 57.9894 22.6136C55.2682 22.6136 54.4805 21.5081 54.4805 19.8018C54.4805 18.1227 55.3381 17.0172 57.9774 17.0172Z" fill="white"/>
<path fill-rule="evenodd" clip-rule="evenodd" d="M2.23438 35.9091V3.67908H148.165V35.9091H2.23438ZM71.7847 34.0909H146.325V5.49726H71.7847V34.0909ZM27.8156 25.3573C32.9423 25.3573 35.0975 23.1727 35.0975 19.7609C35.0975 16.2936 32.6699 14.2327 27.8156 14.2327C23.0358 14.2327 20.5199 16.4709 20.5199 19.7609C20.5199 23.4736 23.1591 25.3573 27.8156 25.3573ZM9.99134 14.4782V25.1936H20.3386V22.34H13.7349V14.4782H9.99134ZM46.6778 25.1936L46.5812 24.1554C45.3289 25.0383 43.8046 25.4633 42.2699 25.3573C39.9628 25.3573 38.0413 24.6745 36.9637 23.2963C36.2529 22.2902 35.894 21.0823 35.9413 19.8563C35.9009 18.6561 36.2723 17.4775 36.995 16.5118C38.0855 15.1745 40.0622 14.2873 43.0051 14.2873C46.3907 14.2873 48.3803 15.3109 49.2361 17.0309C49.4198 17.436 49.5278 17.8705 49.5545 18.3136H45.9729C45.8827 18.0443 45.7147 17.8071 45.4898 17.6309C44.7763 17.1636 43.9244 16.9475 43.0714 17.0173C42.5711 16.9573 42.0635 17.003 41.5824 17.1513C41.1012 17.2995 40.6574 17.547 40.2803 17.8773C39.852 18.4564 39.6509 19.1693 39.7143 19.8836C39.6647 20.5652 39.8495 21.2434 40.2389 21.8082C40.6194 22.1584 41.0718 22.4237 41.5652 22.5863C42.0588 22.7487 42.5817 22.8046 43.099 22.75C44.1263 22.8325 45.1462 22.5195 45.9453 21.8763C46.117 21.6643 46.2353 21.4151 46.2904 21.1491H42.4364V18.8464H49.6484V25.1936H46.6778ZM57.9941 25.3573C63.1199 25.3573 65.276 23.1727 65.276 19.7609C65.276 16.2936 62.8446 14.2327 57.9941 14.2327C53.2144 14.2327 50.6984 16.4709 50.6984 19.7609C50.6984 23.4736 53.3377 25.3573 57.9941 25.3573Z" fill="white"/>
<path d="M78.0898 25.1527V14.4373H80.7586V25.1527H78.0898Z" fill="white"/>
<path d="M94.4639 20.6754C93.7875 21.549 92.6234 21.9481 90.9826 21.9581C90.6366 21.9581 86.0492 21.9445 86.0492 21.9445V25.1526H83.4375V14.4372H90.9835C91.5883 14.374 92.2001 14.4374 92.778 14.6231C93.3568 14.8089 93.8887 15.1129 94.3406 15.5154C94.9369 16.2828 95.2268 17.2397 95.1559 18.2044C95.2166 19.0819 94.9728 19.9536 94.4639 20.6754ZM92.3225 17.1817C92.0464 16.7726 91.451 16.5454 90.4433 16.5454H86.0354V19.8072H90.4148C91.4924 19.8072 92.0602 19.589 92.3225 19.1654C92.478 18.8669 92.5452 18.5308 92.5157 18.1963C92.5387 17.8474 92.4725 17.4984 92.3225 17.1817Z" fill="white"/>
<path d="M102.851 25.3164C97.9313 25.3164 96.4258 23.4982 96.4258 21.6991H99.2169C99.2169 22.5864 100.446 23.2555 102.975 23.2555C105.489 23.2555 106.153 22.8182 106.153 22.1082C106.153 21.3164 105.656 21.071 103.32 20.8119C102.86 20.771 101.608 20.621 101.137 20.5528C97.8246 20.1837 96.5491 19.2146 96.5491 17.481C96.5491 15.6519 98.4154 14.2737 102.464 14.2737C106.858 14.2737 108.544 15.98 108.544 17.7546H105.783C105.783 16.8537 104.747 16.3346 102.301 16.3346C99.7856 16.3346 99.2473 16.6755 99.2473 17.3446C99.2473 18.041 99.7994 18.2591 102.468 18.5728C103.076 18.6555 104.43 18.8055 104.803 18.8455C107.622 19.1319 108.893 20.1419 108.893 21.93C108.889 24.06 106.954 25.3164 102.851 25.3164Z" fill="white"/>
<path d="M116.752 25.3027C113.146 25.3027 110.797 23.8963 110.797 20.9391V14.4373H113.435V20.9754C113.435 22.3273 114.555 23.2273 116.862 23.2273C118.948 23.2273 120.193 22.3818 120.193 20.9754V14.4373H122.804V21.1818C122.804 23.87 120.62 25.3027 116.752 25.3027Z" fill="white"/>
<path d="M137.104 25.1527V18L133.718 25.1527H131.149L127.86 18V25.1527H125.375V14.4373H128.741L132.472 22.6L136.285 14.4373H139.598V25.1527H137.104Z" fill="white"/>
</svg>
