<svg width="150" height="40" viewBox="0 0 150 40" fill="none" xmlns="http://www.w3.org/2000/svg">
<path d="M44.875 12.8265H48.5262V27.4999H44.875V12.8265ZM49.9745 21.9596C49.9745 18.3306 52.2138 16.1652 55.6703 16.1652C59.1267 16.1652 61.3661 18.3306 61.3661 21.9596C61.3661 25.5886 59.1754 27.766 55.6703 27.766C52.1652 27.766 49.9745 25.6491 49.9745 21.9596ZM57.7027 21.9596C57.7027 19.9636 56.9117 18.7902 55.6703 18.7902C54.4289 18.7902 53.65 19.9999 53.65 21.9596C53.65 23.9193 54.4167 25.1048 55.6703 25.1048C56.9238 25.1048 57.7027 23.9918 57.7027 21.9717V21.9596ZM62.7413 28.2136H66.2465C66.4133 28.582 66.6953 28.8869 67.0506 29.0831C67.4058 29.2792 67.8154 29.3562 68.2181 29.3023C69.6055 29.3023 70.3358 28.5523 70.3358 27.4636V25.4314H70.2627C69.9719 26.0542 69.4998 26.5761 68.9076 26.9298C68.3153 27.2834 67.63 27.4525 66.9402 27.4152C64.2748 27.4152 62.5101 25.3951 62.5101 21.9233C62.5101 18.4515 64.1896 16.262 66.9889 16.262C67.7004 16.2343 68.4033 16.4234 69.0037 16.8038C69.6041 17.1844 70.0731 17.7382 70.3479 18.391V16.3709H73.9991V27.3789C73.9991 30.0281 71.6502 31.6733 68.1816 31.6733C64.9564 31.6733 62.9482 30.2338 62.7413 28.2257V28.2136ZM70.3479 21.9475C70.3479 20.1814 69.5325 19.0685 68.2424 19.0685C66.9524 19.0685 66.1613 20.1693 66.1613 21.9475C66.1613 23.7257 66.9402 24.7298 68.2424 24.7298C69.5447 24.7298 70.3479 23.7499 70.3479 21.9596V21.9475ZM75.3744 21.9475C75.3744 18.3185 77.6137 16.1531 81.0702 16.1531C84.5266 16.1531 86.7782 18.3185 86.7782 21.9475C86.7782 25.5765 84.5875 27.7539 81.0702 27.7539C77.5529 27.7539 75.3744 25.6491 75.3744 21.9596V21.9475ZM83.1026 21.9475C83.1026 19.9515 82.3116 18.7781 81.0702 18.7781C79.8288 18.7781 79.1107 19.9999 79.1107 21.9717C79.1107 23.9435 79.8775 25.1168 81.1189 25.1168C82.3603 25.1168 83.1026 23.9918 83.1026 21.9717V21.9475ZM88.1656 13.7338C88.156 13.3674 88.2561 13.0064 88.4532 12.6966C88.6503 12.3868 88.9355 12.1422 89.2726 11.9937C89.6098 11.8452 89.9836 11.7995 90.3469 11.8625C90.7102 11.9255 91.0465 12.0942 91.3131 12.3474C91.5799 12.6005 91.7649 12.9267 91.8449 13.2845C91.9248 13.6423 91.8961 14.0156 91.7622 14.3573C91.6285 14.6987 91.3957 14.9932 91.0933 15.2031C90.7911 15.4129 90.4328 15.5289 90.0642 15.5362C89.8198 15.5529 89.5746 15.5191 89.344 15.4371C89.1132 15.3551 88.9022 15.2266 88.7239 15.0596C88.5456 14.8927 88.4039 14.6908 88.3079 14.4667C88.2117 14.2428 88.1633 14.0015 88.1656 13.758V13.7338ZM88.1656 16.3951H91.8168V27.4999H88.1656V16.3951ZM105.07 21.9475C105.07 25.5765 103.452 27.6451 100.677 27.6451C99.9654 27.6904 99.257 27.5176 98.6475 27.1498C98.038 26.782 97.5569 26.237 97.2692 25.5886H97.1961V31.0564H93.545V16.3709H97.1961V18.3548H97.2692C97.5435 17.6956 98.0155 17.1365 98.6208 16.7534C99.2262 16.3703 99.9356 16.1818 100.653 16.2136C103.452 16.262 105.119 18.3427 105.119 21.9717L105.07 21.9475ZM101.419 21.9475C101.419 20.1814 100.604 19.0564 99.326 19.0564C98.0481 19.0564 97.2326 20.1935 97.2205 21.9475C97.2083 23.7015 98.0481 24.8265 99.326 24.8265C100.604 24.8265 101.419 23.7257 101.419 21.9717V21.9475ZM111.338 16.141C114.369 16.141 116.207 17.5685 116.292 19.8548H112.969C112.969 19.0685 112.312 18.5725 111.302 18.5725C110.292 18.5725 109.841 18.9596 109.841 19.5281C109.841 20.0967 110.243 20.2781 111.058 20.4475L113.395 20.9193C115.622 21.391 116.572 22.2862 116.572 23.9677C116.572 26.266 114.466 27.7418 111.363 27.7418C108.259 27.7418 106.227 26.266 106.068 24.0039H109.586C109.695 24.8265 110.352 25.3104 111.423 25.3104C112.494 25.3104 112.981 24.9596 112.981 24.3789C112.981 23.7983 112.641 23.6773 111.764 23.4959L109.659 23.0483C107.48 22.6007 106.336 21.4515 106.336 19.758C106.361 17.5806 108.32 16.1652 111.338 16.1652V16.141ZM128.754 27.4757H125.237V25.4072H125.164C124.971 26.1016 124.545 26.7095 123.955 27.1299C123.366 27.5501 122.651 27.7576 121.927 27.7177C121.372 27.749 120.817 27.6616 120.299 27.4614C119.781 27.2612 119.313 26.953 118.925 26.5573C118.537 26.1618 118.24 25.6879 118.052 25.1681C117.864 24.6483 117.791 24.0946 117.837 23.5443V16.3709H121.489V22.7096C121.489 24.0281 122.17 24.7298 123.302 24.7298C123.567 24.7302 123.83 24.6745 124.072 24.566C124.313 24.4575 124.53 24.2987 124.705 24.1006C124.879 23.9023 125.011 23.6692 125.087 23.4169C125.164 23.1644 125.187 22.8985 125.152 22.637V16.3709H128.803L128.754 27.4757ZM130.519 16.3709H134.049V18.512H134.122C134.315 17.8267 134.732 17.2246 135.307 16.8C135.881 16.3754 136.582 16.1521 137.298 16.1652C138.027 16.1073 138.75 16.3239 139.326 16.7723C139.9 17.2206 140.285 17.8675 140.402 18.5846H140.475C140.695 17.8599 141.152 17.2289 141.774 16.7909C142.395 16.3529 143.146 16.1327 143.907 16.1652C144.403 16.1487 144.897 16.2361 145.357 16.4219C145.819 16.6076 146.234 16.8877 146.578 17.2435C146.923 17.5996 147.188 18.0235 147.357 18.4879C147.525 18.9523 147.594 19.447 147.558 19.9394V27.4999H143.907V20.9072C143.907 19.6975 143.359 19.141 142.337 19.141C142.109 19.1391 141.883 19.1858 141.675 19.278C141.466 19.3702 141.28 19.5056 141.129 19.6754C140.978 19.8451 140.865 20.0449 140.798 20.2616C140.731 20.4783 140.713 20.7067 140.742 20.9314V27.4999H137.274V20.8588C137.274 19.7459 136.726 19.141 135.728 19.141C135.498 19.1412 135.269 19.1898 135.06 19.2838C134.849 19.3779 134.661 19.5152 134.509 19.6866C134.355 19.858 134.241 20.0598 134.171 20.2786C134.103 20.4973 134.081 20.728 134.109 20.9556V27.4999H130.458L130.519 16.3709Z" fill="white"/>
<path d="M34.662 13.4921C34.0427 12.0844 33.223 10.7726 32.2279 9.5969C30.7571 7.80699 28.9216 6.34697 26.8421 5.31295C24.7626 4.27894 22.4864 3.69436 20.1633 3.5977C17.8402 3.50103 15.5228 3.89447 13.3636 4.75213C11.2045 5.60978 9.2526 6.9122 7.63639 8.57367C6.02017 10.2351 4.77628 12.218 3.9866 14.3917C3.19691 16.5654 2.87932 18.8807 3.05475 21.1851C3.23018 23.4897 3.89463 25.7311 5.00439 27.7619C6.11415 29.7928 7.64405 31.5671 9.49339 32.9679C10.68 33.8847 11.9912 34.63 13.3879 35.1816C15.3462 35.9792 17.4421 36.39 19.5584 36.3913C23.9269 36.3817 28.1133 34.6509 31.2001 31.5783C34.2868 28.5057 36.022 24.3421 36.0251 20.0001C36.0283 17.7604 35.5642 15.5444 34.662 13.4921ZM19.5462 6.9235C21.4468 6.92331 23.3243 7.33617 25.0473 8.13318C24.6272 8.31363 24.1854 8.43966 23.7329 8.50819C22.244 8.72241 20.8647 9.40948 19.8008 10.4669C18.737 11.5242 18.0457 12.8952 17.8302 14.3751C17.7356 15.2051 17.3558 15.9772 16.7549 16.5613C16.1541 17.1453 15.3689 17.5053 14.532 17.5808C13.043 17.795 11.6637 18.4821 10.5999 19.5395C9.53608 20.5969 8.84481 21.9678 8.62928 23.4477C8.5563 24.2369 8.21754 24.9785 7.66781 25.5525C6.71929 23.5606 6.2932 21.3623 6.42917 19.1627C6.56514 16.963 7.25875 14.8332 8.44547 12.9715C9.63217 11.11 11.2734 9.57695 13.2165 8.51525C15.1595 7.45356 17.3412 6.89767 19.5584 6.89931L19.5462 6.9235ZM9.48122 28.4679C9.62726 28.3348 9.77331 28.2138 9.91935 28.0687C11.0021 27.0253 11.6971 25.648 11.891 24.1614C11.9696 23.3258 12.3449 22.5453 12.9498 21.9598C13.5319 21.3576 14.3153 20.9876 15.1527 20.9195C16.6416 20.7052 18.0209 20.0181 19.0847 18.9608C20.1486 17.9034 20.8398 16.5325 21.0554 15.0525C21.1081 14.1786 21.4854 13.3551 22.1142 12.7421C22.7107 12.1516 23.5015 11.795 24.3414 11.738C25.7093 11.551 26.985 10.9465 27.9926 10.0082C29.1399 10.9542 30.1118 12.0923 30.8648 13.3711C30.8186 13.4331 30.7655 13.49 30.7066 13.5404C30.1257 14.1479 29.3433 14.5261 28.5037 14.605C27.0132 14.8154 25.6319 15.5013 24.5673 16.5593C23.5029 17.6174 22.8128 18.9904 22.601 20.4719C22.5152 21.3046 22.1425 22.0823 21.5459 22.6731C20.9491 23.2641 20.1654 23.6317 19.3272 23.7138C17.8338 23.9264 16.4494 24.6121 15.3794 25.669C14.3095 26.7261 13.611 28.0978 13.3879 29.5808C13.3225 30.1719 13.1181 30.7396 12.7916 31.238C11.5429 30.5011 10.4245 29.5653 9.48122 28.4679ZM19.5462 33.1372C18.3113 33.1385 17.0822 32.9675 15.8951 32.6292C16.3012 31.8767 16.5652 31.0567 16.674 30.2098C16.7593 29.3789 17.1304 28.6026 17.7246 28.0121C18.3187 27.4215 19.0997 27.0527 19.9357 26.9679C21.4268 26.7561 22.8089 26.07 23.8752 25.0124C24.9413 23.9549 25.6344 22.5825 25.8506 21.1009C25.9359 20.27 26.307 19.4938 26.9011 18.9032C27.4953 18.3126 28.2763 17.9438 29.1123 17.859C30.2344 17.714 31.3039 17.2987 32.2279 16.6493C32.741 18.5823 32.8018 20.6063 32.4056 22.5662C32.0095 24.5261 31.1668 26.3699 29.9424 27.9559C28.7181 29.5418 27.1445 30.8281 25.3423 31.7157C23.5402 32.6034 21.5575 33.069 19.5462 33.0767V33.1372Z" fill="white"/>
</svg>
