<svg width="150" height="40" viewBox="0 0 150 40" fill="none" xmlns="http://www.w3.org/2000/svg">
<g clip-path="url(#clip0_23_172)">
<path d="M10.1099 28.5089C7.22006 31.3812 2.32576 31.3698 0.958919 27.5416C0.69131 26.7921 0.477347 26.0214 0.319978 25.2351C-0.322557 22.0244 0.0072152 18.6965 1.2676 15.672C2.52797 12.6477 4.66235 10.0627 7.40082 8.24401C10.1393 6.42532 13.3589 5.45459 16.6524 5.45459C19.9459 5.45459 23.1655 6.42532 25.9039 8.24401C28.6425 10.0627 30.7768 12.6477 32.0372 15.6721C33.2976 18.6965 33.6273 22.0244 32.9848 25.2351C32.8275 26.0214 32.6135 26.7921 32.3458 27.5416C30.979 31.3698 26.0847 31.3812 23.1948 28.5089L18.7339 24.075C18.3077 23.6514 18.3518 22.9528 18.4694 22.3652C18.5408 22.0081 18.5041 21.6379 18.3639 21.3014C18.2236 20.9649 17.9863 20.6773 17.6816 20.4751C17.377 20.2728 17.0188 20.1648 16.6524 20.1648C16.286 20.1648 15.9279 20.2728 15.6232 20.4751C15.3185 20.6773 15.0811 20.9649 14.9409 21.3014C14.8006 21.6379 14.764 22.0081 14.8355 22.3652C14.9531 22.9528 14.997 23.6514 14.5708 24.075L10.1099 28.5089Z" fill="#728095"/>
<path d="M46.8507 24.5349H51.3268V27.1567H43.4336V13.2137H46.8507V24.5349Z" fill="white"/>
<path d="M57.4348 27.3157C56.3424 27.3157 55.3565 27.084 54.4772 26.6205C53.6114 26.1571 52.9253 25.495 52.419 24.6344C51.9262 23.7737 51.6797 22.7674 51.6797 21.6153C51.6797 20.4766 51.9328 19.4769 52.439 18.6162C52.9453 17.7423 53.638 17.0736 54.5172 16.6102C55.3965 16.1468 56.3823 15.915 57.4747 15.915C58.5671 15.915 59.5529 16.1468 60.4321 16.6102C61.3114 17.0736 62.0041 17.7423 62.5104 18.6162C63.0166 19.4769 63.2697 20.4766 63.2697 21.6153C63.2697 22.7541 63.0099 23.7604 62.4904 24.6344C61.9842 25.495 61.2848 26.1571 60.3922 26.6205C59.513 27.084 58.5271 27.3157 57.4348 27.3157ZM57.4348 24.3761C58.0875 24.3761 58.6404 24.1378 59.0934 23.6611C59.5596 23.1844 59.7928 22.5025 59.7928 21.6153C59.7928 20.7282 59.5662 20.0463 59.1133 19.5696C58.6737 19.0929 58.1275 18.8545 57.4747 18.8545C56.8086 18.8545 56.2558 19.0929 55.8161 19.5696C55.3765 20.033 55.1567 20.7149 55.1567 21.6153C55.1567 22.5025 55.3699 23.1844 55.7962 23.6611C56.2358 24.1378 56.782 24.3761 57.4348 24.3761Z" fill="white"/>
<path d="M68.7204 15.915C69.5064 15.915 70.1926 16.0739 70.7787 16.3917C71.3781 16.7095 71.8378 17.1266 72.1576 17.643V16.0739H75.5746V27.1369C75.5746 28.1565 75.3681 29.0768 74.9551 29.8976C74.5554 30.7319 73.936 31.3939 73.0968 31.8838C72.2708 32.3738 71.2383 32.6188 69.9994 32.6188C68.3475 32.6188 67.0086 32.2282 65.9828 31.4469C64.9571 30.6789 64.3708 29.6328 64.2243 28.3087H67.6014C67.708 28.7324 67.9611 29.0635 68.3608 29.3019C68.7604 29.5534 69.2534 29.6792 69.8395 29.6792C70.5456 29.6792 71.105 29.4739 71.5181 29.0635C71.9444 28.6663 72.1576 28.0241 72.1576 27.1369V25.5679C71.8245 26.0842 71.3649 26.508 70.7787 26.839C70.1926 27.1568 69.5064 27.3157 68.7204 27.3157C67.8013 27.3157 66.9686 27.084 66.2226 26.6205C65.4766 26.1438 64.8837 25.4751 64.4442 24.6144C64.0179 23.7406 63.8047 22.7343 63.8047 21.5955C63.8047 20.4567 64.0179 19.4571 64.4442 18.5964C64.8837 17.7357 65.4766 17.0736 66.2226 16.6102C66.9686 16.1468 67.8013 15.915 68.7204 15.915ZM72.1576 21.6153C72.1576 20.7679 71.9177 20.0992 71.4381 19.6093C70.9719 19.1194 70.399 18.8744 69.7196 18.8744C69.0402 18.8744 68.4607 19.1194 67.9811 19.6093C67.5148 20.086 67.2817 20.7481 67.2817 21.5955C67.2817 22.4429 67.5148 23.1182 67.9811 23.6214C68.4607 24.1113 69.0402 24.3563 69.7196 24.3563C70.399 24.3563 70.9719 24.1113 71.4381 23.6214C71.9177 23.1314 72.1576 22.4628 72.1576 21.6153Z" fill="white"/>
<path d="M82.5207 27.3157C81.4283 27.3157 80.4425 27.084 79.5633 26.6205C78.6973 26.1571 78.0112 25.495 77.505 24.6344C77.0121 23.7737 76.7656 22.7674 76.7656 21.6153C76.7656 20.4766 77.0187 19.4769 77.525 18.6162C78.0312 17.7423 78.7239 17.0736 79.6031 16.6102C80.4824 16.1468 81.4683 15.915 82.5607 15.915C83.653 15.915 84.6389 16.1468 85.5181 16.6102C86.3974 17.0736 87.0901 17.7423 87.5963 18.6162C88.1025 19.4769 88.3557 20.4766 88.3557 21.6153C88.3557 22.7541 88.096 23.7604 87.5764 24.6344C87.0701 25.495 86.3708 26.1571 85.4781 26.6205C84.5989 27.084 83.6131 27.3157 82.5207 27.3157ZM82.5207 24.3761C83.1734 24.3761 83.7263 24.1378 84.1793 23.6611C84.6456 23.1844 84.8787 22.5025 84.8787 21.6153C84.8787 20.7282 84.6521 20.0463 84.1992 19.5696C83.7596 19.0929 83.2134 18.8545 82.5607 18.8545C81.8946 18.8545 81.3417 19.0929 80.902 19.5696C80.4625 20.033 80.2426 20.7149 80.2426 21.6153C80.2426 22.5025 80.4558 23.1844 80.8821 23.6611C81.3218 24.1378 81.8679 24.3761 82.5207 24.3761Z" fill="white"/>
<path d="M91.2883 14.922C90.6887 14.922 90.1959 14.7498 89.8095 14.4056C89.4365 14.0481 89.25 13.6111 89.25 13.0947C89.25 12.5651 89.4365 12.1281 89.8095 11.7838C90.1959 11.4263 90.6887 11.2476 91.2883 11.2476C91.8744 11.2476 92.354 11.4263 92.727 11.7838C93.1133 12.1281 93.3065 12.5651 93.3065 13.0947C93.3065 13.6111 93.1133 14.0481 92.727 14.4056C92.354 14.7498 91.8744 14.922 91.2883 14.922ZM92.9867 16.074V27.1568H89.5697V16.074H92.9867Z" fill="white"/>
<path d="M98.2801 17.643C98.613 17.1266 99.0727 16.7095 99.6591 16.3917C100.246 16.0739 100.932 15.915 101.718 15.915C102.637 15.915 103.469 16.1468 104.215 16.6102C104.961 17.0736 105.548 17.7357 105.974 18.5964C106.413 19.4571 106.634 20.4567 106.634 21.5955C106.634 22.7343 106.413 23.7406 105.974 24.6144C105.548 25.4751 104.961 26.1438 104.215 26.6205C103.469 27.084 102.637 27.3157 101.718 27.3157C100.944 27.3157 100.259 27.1568 99.6591 26.839C99.0727 26.5212 98.613 26.1107 98.2801 25.6076V32.44H94.8633V16.0739H98.2801V17.643ZM103.157 21.5955C103.157 20.7481 102.917 20.086 102.437 19.6093C101.97 19.1194 101.391 18.8744 100.698 18.8744C100.019 18.8744 99.4394 19.1194 98.9594 19.6093C98.494 20.0992 98.2607 20.7679 98.2607 21.6153C98.2607 22.4628 98.494 23.1314 98.9594 23.6214C99.4394 24.1113 100.019 24.3563 100.698 24.3563C101.378 24.3563 101.958 24.1113 102.437 23.6214C102.917 23.1182 103.157 22.4429 103.157 21.5955Z" fill="white"/>
<path d="M112.362 27.3157C111.39 27.3157 110.524 27.1501 109.764 26.8192C109.005 26.4881 108.405 26.0379 107.966 25.4685C107.527 24.8859 107.28 24.2371 107.227 23.522H110.604C110.644 23.906 110.824 24.2172 111.143 24.4555C111.463 24.6939 111.856 24.8131 112.323 24.8131C112.749 24.8131 113.075 24.7336 113.301 24.5747C113.541 24.4026 113.661 24.1841 113.661 23.9193C113.661 23.6015 113.495 23.3698 113.162 23.2241C112.829 23.0652 112.289 22.8932 111.543 22.7077C110.743 22.5224 110.078 22.3304 109.544 22.1317C109.012 21.9199 108.552 21.5955 108.166 21.1585C107.779 20.7084 107.587 20.1058 107.587 19.3512C107.587 18.7155 107.76 18.1396 108.106 17.6231C108.465 17.0935 108.985 16.6764 109.664 16.3718C110.357 16.0673 111.177 15.915 112.122 15.915C113.521 15.915 114.62 16.2593 115.419 16.9478C116.232 17.6364 116.699 18.55 116.819 19.6888H113.661C113.608 19.3048 113.435 19.0003 113.141 18.7751C112.862 18.55 112.489 18.4375 112.023 18.4375C111.623 18.4375 111.316 18.5169 111.103 18.6758C110.89 18.8214 110.784 19.0267 110.784 19.2915C110.784 19.6093 110.95 19.8477 111.283 20.0066C111.63 20.1655 112.162 20.3244 112.882 20.4832C113.708 20.6951 114.38 20.907 114.9 21.1188C115.419 21.3174 115.872 21.6484 116.259 22.1119C116.658 22.5621 116.865 23.1711 116.879 23.9392C116.879 24.588 116.692 25.1706 116.319 25.687C115.959 26.1902 115.433 26.5874 114.74 26.8787C114.061 27.1701 113.268 27.3157 112.362 27.3157Z" fill="white"/>
<path d="M129.38 16.0739V27.1567H125.963V25.6472C125.617 26.1371 125.143 26.5344 124.544 26.8389C123.958 27.1302 123.306 27.2759 122.586 27.2759C121.733 27.2759 120.98 27.0905 120.328 26.7197C119.675 26.3357 119.169 25.7862 118.81 25.0712C118.45 24.3562 118.27 23.5154 118.27 22.5487V16.0739H121.666V22.0919C121.666 22.8334 121.86 23.4094 122.246 23.8199C122.632 24.2304 123.152 24.4356 123.805 24.4356C124.471 24.4356 124.997 24.2304 125.383 23.8199C125.77 23.4094 125.963 22.8334 125.963 22.0919V16.0739H129.38Z" fill="white"/>
<path d="M145.466 15.9547C146.851 15.9547 147.95 16.3718 148.763 17.206C149.589 18.0402 150.002 19.1987 150.002 20.6818V27.1567H146.605V21.1387C146.605 20.4236 146.412 19.8741 146.025 19.4901C145.652 19.0928 145.133 18.8942 144.466 18.8942C143.801 18.8942 143.274 19.0928 142.888 19.4901C142.515 19.8741 142.329 20.4236 142.329 21.1387V27.1567H138.931V21.1387C138.931 20.4236 138.738 19.8741 138.352 19.4901C137.979 19.0928 137.459 18.8942 136.793 18.8942C136.127 18.8942 135.601 19.0928 135.215 19.4901C134.841 19.8741 134.655 20.4236 134.655 21.1387V27.1567H131.238V16.0739H134.655V17.4642C135.002 17.0008 135.455 16.6366 136.014 16.3718C136.573 16.0937 137.206 15.9547 137.912 15.9547C138.752 15.9547 139.498 16.1334 140.15 16.491C140.816 16.8485 141.336 17.3583 141.709 18.0203C142.095 17.4112 142.622 16.9147 143.288 16.5307C143.953 16.1467 144.68 15.9547 145.466 15.9547Z" fill="white"/>
</g>
<defs>
<clipPath id="clip0_23_172">
<rect width="150" height="40" fill="white"/>
</clipPath>
</defs>
</svg>
