<svg width="150" height="40" viewBox="0 0 150 40" fill="none" xmlns="http://www.w3.org/2000/svg">
<path d="M59.2828 11.5288H56.1406V25.6212H64.8392V22.8598H59.2828V11.5288Z" fill="white"/>
<path d="M65.1406 20.8412C65.1406 23.8501 67.1716 25.8497 70.2371 25.8497C73.2835 25.8497 75.3145 23.8501 75.3145 20.8412C75.3145 17.8323 73.2835 15.8136 70.2371 15.8136C67.1716 15.8136 65.1406 17.8323 65.1406 20.8412ZM68.1104 20.8221C68.1104 19.3939 68.9534 18.4417 70.2371 18.4417C71.5017 18.4417 72.3447 19.3939 72.3447 20.8221C72.3447 22.2695 71.5017 23.2217 70.2371 23.2217C68.9534 23.2217 68.1104 22.2695 68.1104 20.8221Z" fill="white"/>
<path d="M75.7883 20.6889C75.7883 23.5645 77.6661 25.5069 80.3292 25.5069C81.613 25.5069 82.7242 25.0499 83.2798 24.3072V25.6212C83.2798 26.9352 82.456 27.8112 80.9998 27.8112C79.6969 27.8112 78.7964 27.2018 78.7389 26.1164H75.75C76.0182 28.7254 78.0492 30.4773 80.8274 30.4773C84.1037 30.4773 86.173 28.3635 86.173 25.0118V16.0994H83.5097L83.3565 17.0705C82.82 16.2898 81.6896 15.7756 80.3867 15.7756C77.7043 15.7756 75.7883 17.7752 75.7883 20.6889ZM78.7773 20.6127C78.7773 19.2415 79.6969 18.3274 80.8657 18.3274C82.226 18.3274 83.2224 19.2225 83.2224 20.6127C83.2224 22.0029 82.2452 22.9551 80.8848 22.9551C79.7161 22.9551 78.7773 22.0029 78.7773 20.6127Z" fill="white"/>
<path d="M87.0312 20.8412C87.0312 23.8501 89.0623 25.8497 92.1281 25.8497C95.1746 25.8497 97.2053 23.8501 97.2053 20.8412C97.2053 17.8323 95.1746 15.8136 92.1281 15.8136C89.0623 15.8136 87.0312 17.8323 87.0312 20.8412ZM90.0009 20.8221C90.0009 19.3939 90.8439 18.4417 92.1281 18.4417C93.3921 18.4417 94.2351 19.3939 94.2351 20.8221C94.2351 22.2695 93.3921 23.2217 92.1281 23.2217C90.8439 23.2217 90.0009 22.2695 90.0009 20.8221Z" fill="white"/>
<path d="M99.7485 14.6138C100.668 14.6138 101.415 13.8711 101.415 12.9379C101.415 12.0048 100.668 11.2811 99.7485 11.2811C98.8099 11.2811 98.0625 12.0048 98.0625 12.9379C98.0625 13.8711 98.8099 14.6138 99.7485 14.6138ZM98.2537 25.6211H101.224V16.0992H98.2537V25.6211Z" fill="white"/>
<path d="M102.953 30.1916H105.865V24.669C106.421 25.3926 107.686 25.8877 109.008 25.8877C111.862 25.8877 113.586 23.7168 113.51 20.7078C113.433 17.6418 111.651 15.7946 108.988 15.7946C107.628 15.7946 106.344 16.3849 105.808 17.261L105.654 16.0993H102.953V30.1916ZM105.922 20.8602C105.922 19.4319 106.88 18.4798 108.26 18.4798C109.658 18.4798 110.54 19.4509 110.54 20.8602C110.54 22.2695 109.658 23.2406 108.26 23.2406C106.88 23.2406 105.922 22.2885 105.922 20.8602Z" fill="white"/>
<path d="M113.824 22.6122C113.901 24.5356 115.434 25.8687 117.848 25.8687C120.166 25.8687 121.776 24.6499 121.776 22.6884C121.776 21.2792 120.933 20.346 119.361 19.9651L117.657 19.5462C117.044 19.3938 116.66 19.2414 116.66 18.7463C116.66 18.2512 117.062 17.9274 117.657 17.9274C118.327 17.9274 118.767 18.3655 118.749 19.0129H121.412C121.335 17.0324 119.822 15.7946 117.714 15.7946C115.587 15.7946 113.997 17.0515 113.997 18.9558C113.997 20.2317 114.706 21.2792 116.602 21.7743L118.288 22.2123C118.786 22.3456 118.997 22.5741 118.997 22.8978C118.997 23.374 118.557 23.6787 117.809 23.6787C116.947 23.6787 116.487 23.2787 116.487 22.6122H113.824Z" fill="white"/>
<path d="M126.291 25.8686C127.46 25.8686 128.629 25.3354 129.223 24.5546L129.415 25.6211H132.193V16.0992H129.242V21.0506C129.242 22.4788 128.821 23.2596 127.46 23.2596C126.406 23.2596 125.716 22.7836 125.716 21.0125V16.0992H122.766V22.0789C122.766 24.3452 124.031 25.8686 126.291 25.8686Z" fill="white"/>
<path d="M136.873 25.6212V20.4223C136.873 18.8226 137.735 18.3655 138.578 18.3655C139.516 18.3655 140.13 18.9369 140.13 20.1176V25.6212H143.042V20.4223C143.042 18.8036 143.885 18.3465 144.728 18.3465C145.666 18.3465 146.299 18.9178 146.299 20.1176V25.6212H149.173V19.3939C149.173 17.2229 148.023 15.7756 145.551 15.7756C144.173 15.7756 143.042 16.4421 142.544 17.4705C141.969 16.4421 140.973 15.7756 139.382 15.7756C138.329 15.7756 137.351 16.2517 136.777 17.0134L136.662 16.0994H133.902V25.6212H136.873Z" fill="white"/>
<path d="M0 20.0001C0 12.2957 6.28372 6.05005 14.0351 6.05005H32.4561C40.2075 6.05005 46.4912 12.2957 46.4912 20.0001V33.9501H14.0351C6.28372 33.9501 0 27.7045 0 20.0001Z" fill="white"/>
<path d="M32.4547 11.2811H14.0336C9.18905 11.2811 5.26172 15.1847 5.26172 19.9999C5.26172 24.8151 9.18905 28.7187 14.0336 28.7187H32.4547C37.2993 28.7187 41.2266 24.8151 41.2266 19.9999C41.2266 15.1847 37.2993 11.2811 32.4547 11.2811Z" fill="#4B5567"/>
<path d="M14.0344 24.3594C16.4567 24.3594 18.4204 22.4076 18.4204 20C18.4204 17.5924 16.4567 15.6406 14.0344 15.6406C11.6121 15.6406 9.64844 17.5924 9.64844 20C9.64844 22.4076 11.6121 24.3594 14.0344 24.3594Z" fill="white"/>
<path d="M12.2799 19.1282C12.7646 19.1282 13.1575 18.7378 13.1575 18.2563C13.1575 17.7748 12.7646 17.3844 12.2799 17.3844C11.7953 17.3844 11.4023 17.7748 11.4023 18.2563C11.4023 18.7378 11.7953 19.1282 12.2799 19.1282Z" fill="#0D0D0D"/>
<path d="M33.3352 24.3594C35.7575 24.3594 37.7211 22.4076 37.7211 20C37.7211 17.5924 35.7575 15.6406 33.3352 15.6406C30.9129 15.6406 28.9492 17.5924 28.9492 20C28.9492 22.4076 30.9129 24.3594 33.3352 24.3594Z" fill="white"/>
<path d="M31.5807 19.1282C32.0654 19.1282 32.4583 18.7378 32.4583 18.2563C32.4583 17.7748 32.0654 17.3844 31.5807 17.3844C31.096 17.3844 30.7031 17.7748 30.7031 18.2563C30.7031 18.7378 31.096 19.1282 31.5807 19.1282Z" fill="#0D0D0D"/>
</svg>
