<svg width="150" height="40" viewBox="0 0 150 40" fill="none" xmlns="http://www.w3.org/2000/svg">
<path d="M74.6972 26.2879H69.6446V12.8618H74.6972V26.2879ZM70.138 25.7974H74.2038V13.3523H70.138V25.7974ZM81.7275 26.2879H76.7765V12.8618H87.1206C88.6024 12.7426 90.0782 13.1561 91.2792 14.0271C91.7962 14.4972 92.1969 15.0797 92.45 15.7292C92.7033 16.3786 92.802 17.0774 92.7387 17.771C92.8125 18.9696 92.4287 20.1518 91.664 21.0814C90.7591 22.1133 89.2532 22.6449 87.1887 22.6636C86.6686 22.6773 82.7716 22.6636 81.7305 22.6636L81.7275 26.2879ZM77.267 25.7974H81.2341V22.1682H81.4818C81.5321 22.1682 86.5917 22.1839 87.1768 22.1682C89.1002 22.1516 90.4828 21.6778 91.291 20.7529C91.9717 19.9117 92.3098 18.8472 92.2384 17.7701C92.2991 17.1486 92.2149 16.5215 91.9924 15.9376C91.7699 15.3536 91.4151 14.8284 90.9555 14.4028C89.8419 13.6084 88.4795 13.2355 87.1137 13.3513H77.2699L77.267 25.7974ZM86.0726 19.6474H81.2005V15.9927H86.1051C86.4528 15.945 86.807 15.9853 87.1347 16.11C87.4625 16.2346 87.7534 16.4396 87.9801 16.7058C88.1859 17.0461 88.2829 17.4405 88.2584 17.8368C88.2769 18.2047 88.1969 18.5709 88.0265 18.898C87.7925 19.1785 87.4899 19.3943 87.1476 19.5249C86.8055 19.6554 86.4352 19.6963 86.0726 19.6435V19.6474ZM81.694 19.157H86.0726C86.8818 19.157 87.3831 18.9893 87.6051 18.644C87.7274 18.3931 87.7828 18.1151 87.766 17.8368C87.7876 17.5445 87.7239 17.2523 87.5824 16.9952L87.5765 16.9863C87.3417 16.643 86.8749 16.4832 86.1051 16.4832H81.694V19.157ZM101.744 26.486C97.3127 26.486 94.668 25.3923 93.6604 23.1432C93.4955 22.7088 93.3836 22.2563 93.3269 21.7955L93.2834 21.513H98.5551L98.5897 21.719C98.6302 21.9281 98.7199 22.125 98.8502 22.2938C99.0584 22.5439 99.7532 22.9637 102.058 22.9637C104.829 22.9637 104.829 22.4802 104.829 22.2202C104.829 21.7818 104.509 21.6317 102.249 21.3924L101.82 21.3522C100.969 21.2727 99.8933 21.1717 99.4018 21.1295C95.2571 20.7568 93.4068 19.4768 93.4068 16.9805C93.4068 14.3586 96.5558 12.6647 101.43 12.6647C105.406 12.6647 107.968 13.7063 109.042 15.7632C109.297 16.2417 109.469 16.7598 109.549 17.2953L109.583 17.5709H104.305L104.284 17.3493C104.263 17.176 104.189 17.0135 104.071 16.8843C103.873 16.6215 103.25 16.1869 101.313 16.1869C98.9361 16.1869 98.6084 16.4891 98.6084 16.8147C98.6084 17.2492 99.3594 17.4032 101.766 17.6592C102.77 17.7406 104.383 17.9054 104.936 17.9721C108.411 18.3468 109.961 19.5954 109.961 22.0221C109.962 24.0574 108.536 26.486 101.744 26.486ZM93.8597 22.0035C93.9092 22.3269 93.9942 22.644 94.1134 22.949C95.0311 24.998 97.5278 25.9956 101.744 25.9956C105.269 25.9956 109.472 25.309 109.472 22.0221C109.472 19.8711 108.1 18.8058 104.884 18.4596C104.331 18.3929 102.728 18.2291 101.726 18.1467C99.1601 17.8701 98.117 17.723 98.117 16.8147C98.117 15.875 99.241 15.6965 101.315 15.6965C102.954 15.6965 104.013 15.9908 104.462 16.5842C104.585 16.7304 104.678 16.899 104.735 17.0805H109.012C108.926 16.7012 108.79 16.3348 108.607 15.9908C107.62 14.1085 105.209 13.1551 101.432 13.1551C96.8578 13.1551 93.9022 14.6568 93.9022 16.9805C93.9022 19.1972 95.5611 20.2918 99.4473 20.641C99.9407 20.6832 101.015 20.7842 101.868 20.8647L102.3 20.9049C104.399 21.1246 105.325 21.2619 105.325 22.2202C105.325 23.2521 104.128 23.4541 102.06 23.4541C100.148 23.4541 98.94 23.1687 98.4732 22.6067C98.3294 22.4275 98.2208 22.2228 98.1535 22.0035H93.8597ZM119.336 26.4693C114.185 26.4693 111.343 24.3987 111.343 20.6381V12.8618H116.328V20.6381C116.328 21.9279 117.49 22.6675 119.514 22.6675C121.448 22.6675 122.649 21.8956 122.649 20.6548V12.8618H127.583V21.0501C127.588 24.4939 124.579 26.4693 119.333 26.4693H119.336ZM111.836 13.3523V20.6381C111.836 25.2854 116.531 25.9789 119.336 25.9789C122.235 25.9789 127.098 25.3384 127.098 21.0501V13.3523H123.15V20.6548C123.15 22.1751 121.725 23.1579 119.522 23.1579C117.218 23.1579 115.843 22.2163 115.843 20.6381V13.3523H111.836ZM148.492 26.2879H143.787V20.2261L141.119 26.2879H137.014L134.374 20.2379V26.2879H129.652V12.8618H135.863L139.09 20.2644L142.473 12.8618H148.498L148.492 26.2879ZM144.28 25.7974H147.999V13.3523H142.786L139.074 21.4728L135.535 13.3523H130.141V25.7974H133.876V17.878L137.33 25.8004H140.784L144.275 17.8897L144.28 25.7974ZM5.97455 13.107H1.48047V26.0426H13.8989V22.5988H5.97455V13.107ZM22.9699 12.8128C17.2334 12.8128 14.2167 15.5151 14.2167 19.4826C14.2167 23.9652 17.3834 26.2388 22.9699 26.2388C29.1199 26.2388 31.7065 23.6023 31.7065 19.4826C31.7065 15.2993 28.7884 12.8108 22.9699 12.8108V12.8128ZM22.9532 16.1742C23.3437 16.1724 23.734 16.195 24.1216 16.2419L19.0976 21.2354C18.8598 20.701 18.7439 20.1208 18.7581 19.5366C18.7581 17.5072 19.7864 16.1722 22.9532 16.1722V16.1742ZM22.9699 22.9304C22.5937 22.932 22.2177 22.911 21.844 22.8676L26.8769 17.8652C27.1057 18.3908 27.2152 18.9602 27.1976 19.5327C27.1976 21.5071 26.2502 22.9284 22.9699 22.9284V22.9304ZM40.6107 21.1648H45.2361C45.168 21.4839 45.0261 21.7828 44.8216 22.0378C43.8627 22.8142 42.6389 23.1921 41.4061 23.0922C40.7856 23.1582 40.1582 23.0908 39.5662 22.8947C38.9742 22.6986 38.4314 22.3782 37.9749 21.9554C37.5072 21.2736 37.2851 20.4548 37.3443 19.6317C37.2686 18.7693 37.5102 17.9089 38.0242 17.21C38.6706 16.4841 39.765 16.1713 41.3736 16.1713C42.397 16.087 43.4192 16.3483 44.2749 16.9128C44.5446 17.1257 44.7462 17.412 44.8551 17.7367H49.1449C49.1138 17.2016 48.9843 16.6767 48.763 16.1879C47.7357 14.1114 45.3476 12.8756 41.2867 12.8756C37.7548 12.8756 35.3844 13.9467 34.0749 15.5621C33.21 16.7287 32.766 18.1511 32.8147 19.5994C32.7587 21.0805 33.1913 22.5391 34.0463 23.7533C35.34 25.4208 37.6443 26.2408 40.4134 26.2408C42.2543 26.3684 44.0827 25.8559 45.5854 24.7911L45.7019 26.0426H49.2653V18.3802H40.6107V21.1648ZM59.3795 12.8098C53.644 12.8098 50.6262 15.5121 50.6262 19.4797C50.6262 23.9622 53.792 26.2359 59.3795 26.2359C65.5305 26.2359 68.117 23.5993 68.117 19.4797C68.117 15.2993 65.1989 12.8108 59.3795 12.8108V12.8098ZM59.3637 16.1713C59.7439 16.1701 60.1239 16.1918 60.5015 16.236L55.4972 21.2129C55.2669 20.6843 55.1548 20.1125 55.1686 19.5366C55.1647 17.5072 56.1969 16.1722 59.3637 16.1722V16.1713ZM59.3795 22.9274C58.9932 22.9291 58.6073 22.9067 58.2239 22.8607L63.2736 17.8407C63.5111 18.3733 63.6248 18.9523 63.6061 19.5346C63.6081 21.5071 62.6647 22.9284 59.3795 22.9284V22.9274Z" fill="white"/>
</svg>
