<svg width="150" height="40" viewBox="0 0 150 40" fill="none" xmlns="http://www.w3.org/2000/svg">
<path d="M27.4372 0.90918C25.035 0.90918 22.6562 1.39128 20.4369 2.32778C18.2175 3.26439 16.201 4.63709 14.5023 6.36761C12.8037 8.09824 11.4563 10.1526 10.537 12.4137C9.61774 14.6747 9.14453 17.0982 9.14453 19.5455C9.14453 21.9929 9.61774 24.4163 10.537 26.6774C11.4563 28.9385 12.8037 30.9928 14.5023 32.7235C16.201 34.454 18.8154 35.4271 21.0348 36.3637C23.2541 37.3002 25.035 38.1819 27.4372 38.1819V29.7308C26.2361 29.7308 24.8884 29.1048 23.7787 28.6364C22.669 28.1682 21.8191 26.9998 20.9698 26.1345C20.1205 25.2692 19.4468 24.242 18.9871 23.1115C18.5274 21.9809 18.2909 21.2238 18.2909 20.0001C18.2909 18.7764 18.5274 17.1101 18.9871 15.9796C19.4468 14.8491 20.1205 13.8218 20.9698 12.9566C21.8191 12.0913 22.8274 11.405 23.937 10.9367C25.0467 10.4684 26.2361 10.2274 27.4372 10.2274V0.90918Z" fill="white"/>
<path d="M27.8982 25.4545C31.1817 25.4545 33.8434 22.809 33.8434 19.5454C33.8434 16.2819 31.1817 13.6364 27.8982 13.6364C24.6148 13.6364 21.9531 16.2819 21.9531 19.5454C21.9531 22.809 24.6148 25.4545 27.8982 25.4545Z" fill="white"/>
<path d="M9.14453 20C9.14453 22.3876 9.62957 24.752 10.5718 26.9579C11.5141 29.1638 12.8952 31.1681 14.6362 32.8565C16.3774 34.5448 18.4443 35.8841 20.7192 36.7978C22.994 37.7115 25.4323 38.1818 27.8945 38.1818C30.3568 38.1818 32.795 37.7115 35.0699 36.7978C37.3447 35.8841 39.4116 34.5448 41.1528 32.8565C42.8939 31.1681 44.275 29.1638 45.2173 26.9579C46.1595 24.752 46.6445 22.3876 46.6445 20H37.2695C37.2695 21.1939 37.0271 22.376 36.5559 23.479C36.0847 24.5819 35.3942 25.5841 34.5237 26.4283C33.6531 27.2724 32.6196 27.942 31.4822 28.3989C30.3448 28.8558 29.1257 29.0909 27.8945 29.0909C26.6634 29.0909 25.4443 28.8558 24.3069 28.3989C23.1694 27.942 22.1359 27.2724 21.2654 26.4283C20.3949 25.5841 19.7043 24.5819 19.2332 23.479C18.762 22.376 18.5195 21.1939 18.5195 20H9.14453Z" fill="white"/>
<path d="M33.8434 20C33.8434 18.3123 33.217 16.6937 32.1021 15.5003C30.9872 14.3068 29.475 13.6364 27.8983 13.6364C26.3216 13.6364 24.8094 14.3068 23.6945 15.5003C22.5795 16.6937 21.9531 18.3123 21.9531 20H27.8983H33.8434Z" fill="white"/>
<path d="M56.7087 12.7273H53.9648V25.4546H56.7087V12.7273Z" fill="white"/>
<path d="M57.6211 20.9091C57.6211 23.7196 59.7881 25.4546 62.6516 25.4546C65.5151 25.4546 67.6821 23.7196 67.6821 20.9091C67.6821 18.0986 65.5151 16.3636 62.6516 16.3636C59.7881 16.3636 57.6211 18.0986 57.6211 20.9091ZM60.0589 20.9091C60.0589 19.2436 61.1424 18.272 62.6516 18.272C64.1607 18.272 65.2442 19.2436 65.2442 20.9091C65.2442 22.5746 64.1607 23.5462 62.6516 23.5462C61.1424 23.5462 60.0589 22.5746 60.0589 20.9091Z" fill="white"/>
<path d="M75.5713 16.6098V17.7875H75.3961C74.8704 17.0317 74.0294 16.3636 72.5225 16.3636C70.455 16.3636 68.5977 18.1216 68.5977 20.8287C68.5977 23.5359 70.455 25.2938 72.5225 25.2938C74.0294 25.2938 74.8704 24.6082 75.361 23.9227H75.5363V24.7665C75.5363 26.4541 74.555 27.2275 73.1183 27.2275C71.6815 27.2275 70.9456 26.4541 70.6476 25.452L68.6677 26.3134C69.1233 27.6318 70.455 29.0909 73.1533 29.0909C75.9217 29.0909 77.744 27.6318 77.744 24.8191V16.6098H75.5713ZM73.1884 23.3953C71.8217 23.3953 70.8054 22.4109 70.8054 20.8287C70.8054 19.2466 71.8217 18.2622 73.1884 18.2622C74.555 18.2622 75.5713 19.2466 75.5713 20.8287C75.5713 22.4109 74.555 23.3953 73.1884 23.3953Z" fill="white"/>
<path d="M79.5742 20.9091C79.5742 23.7196 81.7412 25.4546 84.6048 25.4546C87.4683 25.4546 89.6352 23.7196 89.6352 20.9091C89.6352 18.0986 87.4683 16.3636 84.6048 16.3636C81.7412 16.3636 79.5742 18.0986 79.5742 20.9091ZM82.0121 20.9091C82.0121 19.2436 83.0956 18.272 84.6048 18.272C86.1139 18.272 87.1974 19.2436 87.1974 20.9091C87.1974 22.5746 86.1139 23.5462 84.6048 23.5462C83.0956 23.5462 82.0121 22.5746 82.0121 20.9091Z" fill="white"/>
<path d="M91.4648 13.4336C91.4648 14.3915 92.0662 15.0489 92.8372 15.0489C93.6074 15.0489 94.2087 14.3915 94.2087 13.4336C94.2087 12.4757 93.6074 11.8182 92.8372 11.8182C92.0662 11.8182 91.4648 12.4757 91.4648 13.4336ZM93.8076 16.1383H91.866V25.4546H93.8076V16.1383Z" fill="white"/>
<path d="M96.0352 29.0909H98.2433V24.3585H98.418C98.9086 25.0756 99.7496 25.7567 101.257 25.7567C103.324 25.7567 105.181 23.9642 105.181 21.0602C105.181 18.1562 103.324 16.3636 101.257 16.3636C99.7496 16.3636 98.9086 17.0448 98.3834 17.8157H98.2077V16.6146H96.0352V29.0909ZM100.591 23.8208C99.2244 23.8208 98.2077 22.8169 98.2077 21.0602C98.2077 19.3035 99.2244 18.2996 100.591 18.2996C101.958 18.2996 102.973 19.3035 102.973 21.0602C102.973 22.8169 101.958 23.8208 100.591 23.8208Z" fill="white"/>
<path d="M107.347 19.0181C107.347 20.7183 108.874 21.3429 110.811 21.6899L111.295 21.7766C112.449 21.9847 112.971 22.245 112.971 22.8002C112.971 23.3554 112.449 23.789 111.37 23.789C110.289 23.789 109.415 23.3727 109.172 22.1235L107.012 22.644C107.329 24.4483 108.948 25.4546 111.37 25.4546C113.716 25.4546 115.243 24.431 115.243 22.6267C115.243 20.8223 113.679 20.3366 111.593 19.955L111.109 19.8682C110.14 19.6947 109.619 19.4518 109.619 18.8793C109.619 18.3588 110.104 18.0292 110.997 18.0292C111.891 18.0292 112.524 18.3761 112.747 19.313L114.871 18.7058C114.424 17.3179 113.065 16.3636 110.997 16.3636C108.799 16.3636 107.347 17.3179 107.347 19.0181Z" fill="white"/>
<path d="M125.306 25.3103V16.3636H122.906V20.9813C122.906 22.6407 122.049 23.6147 120.581 23.6147C119.285 23.6147 118.562 22.9474 118.562 21.5945V16.3636H116.16V21.7028C116.16 23.9214 117.628 25.4546 119.839 25.4546C121.572 25.4546 122.373 24.7331 122.754 23.9755H122.944V25.3103H125.306Z" fill="white"/>
<path d="M127.133 16.5079V25.4546H129.541V20.1155C129.541 18.8889 130.152 18.2035 131.26 18.2035C132.216 18.2035 132.789 18.7085 132.789 19.6826V25.4546H135.197V20.1155C135.197 18.8889 135.808 18.2035 136.916 18.2035C137.872 18.2035 138.444 18.7085 138.444 19.6826V25.4546H140.852V19.5743C140.852 17.4098 139.438 16.3636 137.68 16.3636C136.133 16.3636 135.426 17.013 134.967 17.7706H134.776C134.336 16.9229 133.553 16.3636 132.177 16.3636C130.801 16.3636 130.056 16.9408 129.694 17.6263H129.502V16.5079H127.133Z" fill="white"/>
</svg>
