<svg width="150" height="40" viewBox="0 0 150 40" fill="none" xmlns="http://www.w3.org/2000/svg">
<path d="M16.0319 24.1027V32.1194C16.0319 32.4268 15.9091 32.7215 15.6905 32.9387C15.4719 33.156 15.1754 33.2781 14.8662 33.2781C14.557 33.2781 14.2605 33.156 14.0419 32.9387C13.8232 32.7215 13.7004 32.4268 13.7004 32.1194V24.1137C14.025 24.3494 14.4141 24.4809 14.816 24.4907C15.2539 24.5032 15.6831 24.3662 16.0319 24.1027ZM25.9606 21.7852C25.6647 21.7852 25.3809 21.9021 25.1718 22.11C24.9626 22.3179 24.845 22.6 24.845 22.894V24.2912C24.845 24.5985 24.9678 24.8932 25.1865 25.1105C25.405 25.3278 25.7015 25.4499 26.0108 25.4499C26.32 25.4499 26.6165 25.3278 26.8351 25.1105C27.0537 24.8932 27.1766 24.5985 27.1766 24.2912V22.9495C27.1853 22.7905 27.1594 22.6315 27.1007 22.4833C27.042 22.3352 26.952 22.2013 26.8365 22.0908C26.7212 21.9804 26.5832 21.8959 26.4321 21.8431C26.281 21.7904 26.1201 21.7707 25.9606 21.7852ZM11.168 27.1408C10.7666 27.1288 10.378 26.9976 10.0525 26.7638V34.8027C10.0525 35.1115 10.1759 35.4077 10.3955 35.626C10.6152 35.8443 10.9132 35.967 11.2238 35.967C11.5345 35.967 11.8324 35.8443 12.0521 35.626C12.2718 35.4077 12.3952 35.1115 12.3952 34.8027V26.8193C12.0309 27.0533 11.6011 27.166 11.168 27.1408ZM22.3238 19.3791C22.1726 19.3716 22.0216 19.3947 21.8797 19.4471C21.7379 19.4994 21.6083 19.5799 21.4986 19.6836C21.3891 19.7874 21.3019 19.9121 21.2424 20.0504C21.1829 20.1887 21.1522 20.3376 21.1524 20.4879V26.664C21.1524 26.9728 21.2758 27.269 21.4955 27.4873C21.7153 27.7056 22.0131 27.8283 22.3238 27.8283C22.6345 27.8283 22.9325 27.7056 23.1521 27.4873C23.3718 27.269 23.4952 26.9728 23.4952 26.664V20.5655C23.5041 20.4055 23.478 20.2455 23.4186 20.0965C23.3593 19.9475 23.2682 19.813 23.1516 19.7023C23.0349 19.5917 22.8955 19.5074 22.743 19.4555C22.5905 19.4035 22.4284 19.385 22.268 19.4013L22.3238 19.3791ZM18.6201 21.752C18.1999 21.7491 17.7909 21.6175 17.4487 21.375V29.4361C17.4487 29.7449 17.5721 30.041 17.7918 30.2594C18.0115 30.4777 18.3094 30.6003 18.6201 30.6003C18.9308 30.6003 19.2286 30.4777 19.4484 30.2594C19.6681 30.041 19.7914 29.7449 19.7914 29.4361V21.3861C19.4376 21.6481 19.0055 21.7847 18.5643 21.7741L18.6201 21.752ZM8.63568 27.9281V5.40803C8.63275 5.13352 8.52096 4.87126 8.32462 4.67818C8.12828 4.48511 7.86323 4.37682 7.58704 4.37683H7.34161C7.06542 4.37682 6.80037 4.48511 6.60402 4.67818C6.40768 4.87126 6.2959 5.13352 6.29297 5.40803V27.9281C6.29297 28.2045 6.40346 28.4696 6.60011 28.6651C6.79676 28.8606 7.0635 28.9704 7.34161 28.9704H7.58704C7.86516 28.9704 8.13188 28.8606 8.32854 28.6651C8.5252 28.4696 8.63568 28.2045 8.63568 27.9281ZM11.2908 26.287H11.0453C10.7672 26.287 10.5005 26.1772 10.3038 25.9818C10.1072 25.7863 9.99668 25.5212 9.99668 25.2447V8.09136C9.99963 7.81686 10.1114 7.55459 10.3077 7.36152C10.5041 7.16844 10.7691 7.06015 11.0453 7.06016H11.2908C11.5669 7.06015 11.832 7.16844 12.0283 7.36152C12.2247 7.55459 12.3365 7.81686 12.3394 8.09136V25.2669C12.3394 25.5433 12.2289 25.8085 12.0323 26.0039C11.8356 26.1994 11.5689 26.3092 11.2908 26.3092V26.287ZM14.9833 23.648H14.7267C14.4516 23.648 14.1877 23.5394 13.9931 23.346C13.7986 23.1526 13.6892 22.8904 13.6892 22.6168V10.7525C13.6878 10.6162 13.7136 10.4809 13.765 10.3545C13.8164 10.2281 13.8926 10.1131 13.9891 10.0162C14.0856 9.91925 14.2005 9.84229 14.3271 9.78978C14.4537 9.73727 14.5895 9.71022 14.7267 9.71023H14.9833C15.2595 9.71316 15.5234 9.82425 15.7176 10.0194C15.9119 10.2146 16.0208 10.478 16.0208 10.7525V22.6168C16.0208 22.8904 15.9115 23.1526 15.7169 23.346C15.5224 23.5394 15.2585 23.648 14.9833 23.648ZM18.6759 20.9314H18.4416C18.1654 20.9314 17.9003 20.8232 17.704 20.6301C17.5076 20.437 17.3959 20.1748 17.393 19.9002V13.5135C17.3838 13.3711 17.4041 13.2284 17.4527 13.0941C17.5013 12.9599 17.5771 12.837 17.6754 12.7331C17.7737 12.6291 17.8924 12.5464 18.0243 12.4898C18.156 12.4334 18.298 12.4043 18.4416 12.4047H18.687C18.9651 12.4047 19.2319 12.5144 19.4285 12.7099C19.6252 12.9054 19.7357 13.1705 19.7357 13.4469V19.8781C19.7371 20.0159 19.7111 20.1526 19.659 20.2803C19.607 20.4081 19.5301 20.5243 19.4325 20.6223C19.3349 20.7202 19.2189 20.7979 19.0909 20.8511C18.9629 20.9042 18.8257 20.9314 18.687 20.9314H18.6759ZM22.3796 18.5475H22.1342C21.856 18.5475 21.5893 18.4377 21.3926 18.2422C21.196 18.0468 21.0855 17.7816 21.0855 17.5052V15.8531C21.0884 15.5785 21.2002 15.3163 21.3965 15.1232C21.5929 14.9301 21.8579 14.8219 22.1342 14.8219H22.3796C22.6558 14.8219 22.9209 14.9301 23.1172 15.1232C23.3135 15.3163 23.4253 15.5785 23.4282 15.8531V17.5052C23.4282 17.7797 23.3193 18.0432 23.125 18.2384C22.9308 18.4335 22.667 18.5446 22.3907 18.5475H22.3796Z" fill="white"/>
<path d="M57.9965 22.592C57.9965 23.904 57.7005 25.064 57.1085 26.072C56.5325 27.064 55.7485 27.84 54.7565 28.4C53.7805 28.96 52.6845 29.24 51.4685 29.24C50.2525 29.24 49.1485 28.96 48.1565 28.4C47.1805 27.84 46.3965 27.064 45.8045 26.072C45.2285 25.064 44.9405 23.904 44.9405 22.592C44.9405 21.28 45.2285 20.128 45.8045 19.136C46.3965 18.128 47.1805 17.344 48.1565 16.784C49.1485 16.208 50.2525 15.92 51.4685 15.92C52.6845 15.92 53.7805 16.208 54.7565 16.784C55.7485 17.344 56.5325 18.128 57.1085 19.136C57.7005 20.128 57.9965 21.28 57.9965 22.592ZM55.1165 22.592C55.1165 21.776 54.9485 21.072 54.6125 20.48C54.2925 19.872 53.8525 19.4 53.2925 19.064C52.7485 18.728 52.1405 18.56 51.4685 18.56C50.7965 18.56 50.1805 18.728 49.6205 19.064C49.0765 19.4 48.6365 19.872 48.3005 20.48C47.9805 21.072 47.8205 21.776 47.8205 22.592C47.8205 23.392 47.9805 24.096 48.3005 24.704C48.6365 25.296 49.0765 25.76 49.6205 26.096C50.1805 26.432 50.7965 26.6 51.4685 26.6C52.1405 26.6 52.7485 26.432 53.2925 26.096C53.8525 25.76 54.2925 25.296 54.6125 24.704C54.9485 24.096 55.1165 23.392 55.1165 22.592ZM67.597 11.24C67.949 11.24 68.293 11.288 68.629 11.384C68.965 11.48 69.245 11.64 69.469 11.864C69.693 12.072 69.805 12.352 69.805 12.704C69.805 13.104 69.685 13.424 69.445 13.664C69.221 13.888 68.957 14 68.653 14C68.509 14 68.293 13.968 68.005 13.904C67.717 13.824 67.437 13.784 67.165 13.784C66.765 13.784 66.453 13.872 66.229 14.048C66.021 14.224 65.877 14.432 65.797 14.672C65.717 14.896 65.677 15.096 65.677 15.272V27.536C65.677 27.952 65.541 28.304 65.269 28.592C64.997 28.864 64.653 29 64.237 29C63.821 29 63.477 28.864 63.205 28.592C62.933 28.304 62.797 27.952 62.797 27.536V15.296C62.797 14.16 63.197 13.2 63.997 12.416C64.797 11.632 65.997 11.24 67.597 11.24ZM67.861 16.4C68.245 16.4 68.565 16.528 68.821 16.784C69.077 17.024 69.205 17.336 69.205 17.72C69.205 18.104 69.077 18.424 68.821 18.68C68.565 18.92 68.245 19.04 67.861 19.04H61.501C61.117 19.04 60.797 18.92 60.541 18.68C60.285 18.424 60.157 18.104 60.157 17.72C60.157 17.336 60.285 17.024 60.541 16.784C60.797 16.528 61.117 16.4 61.501 16.4H67.861ZM78.085 11.24C78.437 11.24 78.781 11.288 79.117 11.384C79.453 11.48 79.733 11.64 79.957 11.864C80.181 12.072 80.293 12.352 80.293 12.704C80.293 13.104 80.173 13.424 79.933 13.664C79.709 13.888 79.445 14 79.141 14C78.997 14 78.781 13.968 78.493 13.904C78.205 13.824 77.925 13.784 77.653 13.784C77.253 13.784 76.941 13.872 76.717 14.048C76.509 14.224 76.365 14.432 76.285 14.672C76.205 14.896 76.165 15.096 76.165 15.272V27.536C76.165 27.952 76.029 28.304 75.757 28.592C75.485 28.864 75.141 29 74.725 29C74.309 29 73.965 28.864 73.693 28.592C73.421 28.304 73.285 27.952 73.285 27.536V15.296C73.285 14.16 73.685 13.2 74.485 12.416C75.285 11.632 76.485 11.24 78.085 11.24ZM78.349 16.4C78.733 16.4 79.053 16.528 79.309 16.784C79.565 17.024 79.693 17.336 79.693 17.72C79.693 18.104 79.565 18.424 79.309 18.68C79.053 18.92 78.733 19.04 78.349 19.04H71.989C71.605 19.04 71.285 18.92 71.029 18.68C70.773 18.424 70.645 18.104 70.645 17.72C70.645 17.336 70.773 17.024 71.029 16.784C71.285 16.528 71.605 16.4 71.989 16.4H78.349ZM89.1976 15.92C90.4776 15.92 91.4216 16.232 92.0296 16.856C92.6376 17.464 93.0376 18.256 93.2296 19.232L92.8216 19.016L93.0136 18.632C93.2056 18.264 93.5016 17.872 93.9016 17.456C94.3016 17.024 94.7816 16.664 95.3416 16.376C95.9176 16.072 96.5576 15.92 97.2616 15.92C98.4136 15.92 99.2856 16.168 99.8776 16.664C100.486 17.16 100.902 17.824 101.126 18.656C101.35 19.472 101.462 20.384 101.462 21.392V27.536C101.462 27.952 101.326 28.304 101.054 28.592C100.782 28.864 100.438 29 100.022 29C99.6056 29 99.2616 28.864 98.9896 28.592C98.7176 28.304 98.5816 27.952 98.5816 27.536V21.392C98.5816 20.864 98.5176 20.392 98.3896 19.976C98.2616 19.544 98.0296 19.2 97.6936 18.944C97.3576 18.688 96.8776 18.56 96.2536 18.56C95.6456 18.56 95.1256 18.688 94.6936 18.944C94.2616 19.2 93.9336 19.544 93.7096 19.976C93.5016 20.392 93.3976 20.864 93.3976 21.392V27.536C93.3976 27.952 93.2616 28.304 92.9896 28.592C92.7176 28.864 92.3736 29 91.9576 29C91.5416 29 91.1976 28.864 90.9256 28.592C90.6536 28.304 90.5176 27.952 90.5176 27.536V21.392C90.5176 20.864 90.4536 20.392 90.3256 19.976C90.1976 19.544 89.9656 19.2 89.6296 18.944C89.2936 18.688 88.8136 18.56 88.1896 18.56C87.5816 18.56 87.0616 18.688 86.6296 18.944C86.1976 19.2 85.8696 19.544 85.6456 19.976C85.4376 20.392 85.3336 20.864 85.3336 21.392V27.536C85.3336 27.952 85.1976 28.304 84.9256 28.592C84.6536 28.864 84.3096 29 83.8936 29C83.4776 29 83.1336 28.864 82.8616 28.592C82.5896 28.304 82.4536 27.952 82.4536 27.536V17.624C82.4536 17.208 82.5896 16.864 82.8616 16.592C83.1336 16.304 83.4776 16.16 83.8936 16.16C84.3096 16.16 84.6536 16.304 84.9256 16.592C85.1976 16.864 85.3336 17.208 85.3336 17.624V18.656L84.9736 18.584C85.1176 18.312 85.3176 18.024 85.5736 17.72C85.8296 17.4 86.1416 17.104 86.5096 16.832C86.8776 16.56 87.2856 16.344 87.7336 16.184C88.1816 16.008 88.6696 15.92 89.1976 15.92ZM115.571 15.92C115.987 15.92 116.331 16.056 116.603 16.328C116.875 16.6 117.011 16.952 117.011 17.384V27.536C117.011 27.952 116.875 28.304 116.603 28.592C116.331 28.864 115.987 29 115.571 29C115.155 29 114.811 28.864 114.539 28.592C114.267 28.304 114.131 27.952 114.131 27.536V26.36L114.659 26.576C114.659 26.784 114.547 27.04 114.323 27.344C114.099 27.632 113.795 27.92 113.411 28.208C113.027 28.496 112.571 28.744 112.043 28.952C111.531 29.144 110.971 29.24 110.363 29.24C109.259 29.24 108.259 28.96 107.363 28.4C106.467 27.824 105.755 27.04 105.227 26.048C104.715 25.04 104.459 23.888 104.459 22.592C104.459 21.28 104.715 20.128 105.227 19.136C105.755 18.128 106.459 17.344 107.339 16.784C108.219 16.208 109.195 15.92 110.267 15.92C110.955 15.92 111.587 16.024 112.163 16.232C112.739 16.44 113.235 16.704 113.651 17.024C114.083 17.344 114.411 17.672 114.635 18.008C114.875 18.328 114.995 18.6 114.995 18.824L114.131 19.136V17.384C114.131 16.968 114.267 16.624 114.539 16.352C114.811 16.064 115.155 15.92 115.571 15.92ZM110.723 26.6C111.427 26.6 112.043 26.424 112.571 26.072C113.099 25.72 113.507 25.24 113.795 24.632C114.099 24.024 114.251 23.344 114.251 22.592C114.251 21.824 114.099 21.136 113.795 20.528C113.507 19.92 113.099 19.44 112.571 19.088C112.043 18.736 111.427 18.56 110.723 18.56C110.035 18.56 109.427 18.736 108.899 19.088C108.371 19.44 107.955 19.92 107.651 20.528C107.363 21.136 107.219 21.824 107.219 22.592C107.219 23.344 107.363 24.024 107.651 24.632C107.955 25.24 108.371 25.72 108.899 26.072C109.427 26.424 110.035 26.6 110.723 26.6ZM120.873 16.16C121.337 16.16 121.729 16.36 122.049 16.76L130.065 26.72C130.273 26.976 130.377 27.264 130.377 27.584C130.377 27.984 130.225 28.328 129.921 28.616C129.617 28.904 129.281 29.048 128.913 29.048C128.449 29.048 128.057 28.84 127.737 28.424L119.721 18.464C119.513 18.208 119.409 17.92 119.409 17.6C119.409 17.184 119.553 16.84 119.841 16.568C120.145 16.296 120.489 16.16 120.873 16.16ZM120.897 29.024C120.577 29.024 120.257 28.904 119.937 28.664C119.633 28.408 119.481 28.104 119.481 27.752C119.481 27.432 119.601 27.128 119.841 26.84L123.513 22.352L124.953 24.752L122.049 28.424C121.745 28.824 121.361 29.024 120.897 29.024ZM128.889 16.16C129.273 16.16 129.593 16.296 129.849 16.568C130.121 16.824 130.257 17.12 130.257 17.456C130.257 17.616 130.233 17.776 130.185 17.936C130.137 18.096 130.049 18.248 129.921 18.392L126.297 22.808L124.785 20.72L127.737 16.808C128.057 16.376 128.441 16.16 128.889 16.16Z" fill="white"/>
</svg>
