<svg width="150" height="40" viewBox="0 0 150 40" fill="none" xmlns="http://www.w3.org/2000/svg">
<path d="M27.7557 0L0 23.1397H18.7412L11.2428 39.9763L39.2437 16.9908H19.7244L27.7557 0Z" fill="#728095"/>
<path d="M27.7551 0L15.2179 18.6819L33.8465 18.6819L11.2422 39.9763L39.2431 16.9908L19.7238 16.9908L27.7551 0Z" fill="#4B5567"/>
<path d="M27.7557 0L0 23.1397H18.7412L11.2428 39.9763L23.1537 21.4486H5.54153L27.7557 0Z" fill="#A1AEBF"/>
<path d="M61.9926 20.592C61.9926 21.904 61.6966 23.064 61.1046 24.072C60.5286 25.064 59.7446 25.84 58.7526 26.4C57.7766 26.96 56.6806 27.24 55.4646 27.24C54.2486 27.24 53.1446 26.96 52.1526 26.4C51.1766 25.84 50.3926 25.064 49.8006 24.072C49.2246 23.064 48.9366 21.904 48.9366 20.592C48.9366 19.28 49.2246 18.128 49.8006 17.136C50.3926 16.128 51.1766 15.344 52.1526 14.784C53.1446 14.208 54.2486 13.92 55.4646 13.92C56.6806 13.92 57.7766 14.208 58.7526 14.784C59.7446 15.344 60.5286 16.128 61.1046 17.136C61.6966 18.128 61.9926 19.28 61.9926 20.592ZM59.1126 20.592C59.1126 19.776 58.9446 19.072 58.6086 18.48C58.2886 17.872 57.8486 17.4 57.2886 17.064C56.7446 16.728 56.1366 16.56 55.4646 16.56C54.7926 16.56 54.1766 16.728 53.6166 17.064C53.0726 17.4 52.6326 17.872 52.2966 18.48C51.9766 19.072 51.8166 19.776 51.8166 20.592C51.8166 21.392 51.9766 22.096 52.2966 22.704C52.6326 23.296 53.0726 23.76 53.6166 24.096C54.1766 24.432 54.7926 24.6 55.4646 24.6C56.1366 24.6 56.7446 24.432 57.2886 24.096C57.8486 23.76 58.2886 23.296 58.6086 22.704C58.9446 22.096 59.1126 21.392 59.1126 20.592ZM71.5931 9.24C71.9451 9.24 72.2891 9.288 72.6251 9.384C72.9611 9.48 73.2411 9.64 73.4651 9.864C73.6891 10.072 73.8011 10.352 73.8011 10.704C73.8011 11.104 73.6811 11.424 73.4411 11.664C73.2171 11.888 72.9531 12 72.6491 12C72.5051 12 72.2891 11.968 72.0011 11.904C71.7131 11.824 71.4331 11.784 71.1611 11.784C70.7611 11.784 70.4491 11.872 70.2251 12.048C70.0171 12.224 69.8731 12.432 69.7931 12.672C69.7131 12.896 69.6731 13.096 69.6731 13.272V25.536C69.6731 25.952 69.5371 26.304 69.2651 26.592C68.9931 26.864 68.6491 27 68.2331 27C67.8171 27 67.4731 26.864 67.2011 26.592C66.9291 26.304 66.7931 25.952 66.7931 25.536V13.296C66.7931 12.16 67.1931 11.2 67.9931 10.416C68.7931 9.632 69.9931 9.24 71.5931 9.24ZM71.8571 14.4C72.2411 14.4 72.5611 14.528 72.8171 14.784C73.0731 15.024 73.2011 15.336 73.2011 15.72C73.2011 16.104 73.0731 16.424 72.8171 16.68C72.5611 16.92 72.2411 17.04 71.8571 17.04H65.4971C65.1131 17.04 64.7931 16.92 64.5371 16.68C64.2811 16.424 64.1531 16.104 64.1531 15.72C64.1531 15.336 64.2811 15.024 64.5371 14.784C64.7931 14.528 65.1131 14.4 65.4971 14.4H71.8571ZM82.0811 9.24C82.4331 9.24 82.7771 9.288 83.1131 9.384C83.4491 9.48 83.7291 9.64 83.9531 9.864C84.1771 10.072 84.2891 10.352 84.2891 10.704C84.2891 11.104 84.1691 11.424 83.9291 11.664C83.7051 11.888 83.4411 12 83.1371 12C82.9931 12 82.7771 11.968 82.4891 11.904C82.2011 11.824 81.9211 11.784 81.6491 11.784C81.2491 11.784 80.9371 11.872 80.7131 12.048C80.5051 12.224 80.3611 12.432 80.2811 12.672C80.2011 12.896 80.1611 13.096 80.1611 13.272V25.536C80.1611 25.952 80.0251 26.304 79.7531 26.592C79.4811 26.864 79.1371 27 78.7211 27C78.3051 27 77.9611 26.864 77.6891 26.592C77.4171 26.304 77.2811 25.952 77.2811 25.536V13.296C77.2811 12.16 77.6811 11.2 78.4811 10.416C79.2811 9.632 80.4811 9.24 82.0811 9.24ZM82.3451 14.4C82.7291 14.4 83.0491 14.528 83.3051 14.784C83.5611 15.024 83.6891 15.336 83.6891 15.72C83.6891 16.104 83.5611 16.424 83.3051 16.68C83.0491 16.92 82.7291 17.04 82.3451 17.04H75.9851C75.6011 17.04 75.2811 16.92 75.0251 16.68C74.7691 16.424 74.6411 16.104 74.6411 15.72C74.6411 15.336 74.7691 15.024 75.0251 14.784C75.2811 14.528 75.6011 14.4 75.9851 14.4H82.3451ZM93.1937 13.92C94.4737 13.92 95.4177 14.232 96.0257 14.856C96.6337 15.464 97.0337 16.256 97.2257 17.232L96.8177 17.016L97.0097 16.632C97.2017 16.264 97.4977 15.872 97.8977 15.456C98.2977 15.024 98.7777 14.664 99.3377 14.376C99.9137 14.072 100.554 13.92 101.258 13.92C102.41 13.92 103.282 14.168 103.874 14.664C104.482 15.16 104.898 15.824 105.122 16.656C105.346 17.472 105.458 18.384 105.458 19.392V25.536C105.458 25.952 105.322 26.304 105.05 26.592C104.778 26.864 104.434 27 104.018 27C103.602 27 103.258 26.864 102.986 26.592C102.714 26.304 102.578 25.952 102.578 25.536V19.392C102.578 18.864 102.514 18.392 102.386 17.976C102.258 17.544 102.026 17.2 101.69 16.944C101.354 16.688 100.874 16.56 100.25 16.56C99.6417 16.56 99.1217 16.688 98.6897 16.944C98.2577 17.2 97.9297 17.544 97.7057 17.976C97.4977 18.392 97.3937 18.864 97.3937 19.392V25.536C97.3937 25.952 97.2577 26.304 96.9857 26.592C96.7137 26.864 96.3697 27 95.9537 27C95.5377 27 95.1937 26.864 94.9217 26.592C94.6497 26.304 94.5137 25.952 94.5137 25.536V19.392C94.5137 18.864 94.4497 18.392 94.3217 17.976C94.1937 17.544 93.9617 17.2 93.6257 16.944C93.2897 16.688 92.8097 16.56 92.1857 16.56C91.5777 16.56 91.0577 16.688 90.6257 16.944C90.1937 17.2 89.8657 17.544 89.6417 17.976C89.4337 18.392 89.3297 18.864 89.3297 19.392V25.536C89.3297 25.952 89.1937 26.304 88.9217 26.592C88.6497 26.864 88.3057 27 87.8897 27C87.4737 27 87.1297 26.864 86.8577 26.592C86.5857 26.304 86.4497 25.952 86.4497 25.536V15.624C86.4497 15.208 86.5857 14.864 86.8577 14.592C87.1297 14.304 87.4737 14.16 87.8897 14.16C88.3057 14.16 88.6497 14.304 88.9217 14.592C89.1937 14.864 89.3297 15.208 89.3297 15.624V16.656L88.9697 16.584C89.1137 16.312 89.3137 16.024 89.5697 15.72C89.8257 15.4 90.1377 15.104 90.5057 14.832C90.8737 14.56 91.2817 14.344 91.7297 14.184C92.1777 14.008 92.6657 13.92 93.1937 13.92ZM119.567 13.92C119.983 13.92 120.327 14.056 120.599 14.328C120.871 14.6 121.007 14.952 121.007 15.384V25.536C121.007 25.952 120.871 26.304 120.599 26.592C120.327 26.864 119.983 27 119.567 27C119.151 27 118.807 26.864 118.535 26.592C118.263 26.304 118.127 25.952 118.127 25.536V24.36L118.655 24.576C118.655 24.784 118.543 25.04 118.319 25.344C118.095 25.632 117.791 25.92 117.407 26.208C117.023 26.496 116.567 26.744 116.039 26.952C115.527 27.144 114.967 27.24 114.359 27.24C113.255 27.24 112.255 26.96 111.359 26.4C110.463 25.824 109.751 25.04 109.223 24.048C108.711 23.04 108.455 21.888 108.455 20.592C108.455 19.28 108.711 18.128 109.223 17.136C109.751 16.128 110.455 15.344 111.335 14.784C112.215 14.208 113.191 13.92 114.263 13.92C114.951 13.92 115.583 14.024 116.159 14.232C116.735 14.44 117.231 14.704 117.647 15.024C118.079 15.344 118.407 15.672 118.631 16.008C118.871 16.328 118.991 16.6 118.991 16.824L118.127 17.136V15.384C118.127 14.968 118.263 14.624 118.535 14.352C118.807 14.064 119.151 13.92 119.567 13.92ZM114.719 24.6C115.423 24.6 116.039 24.424 116.567 24.072C117.095 23.72 117.503 23.24 117.791 22.632C118.095 22.024 118.247 21.344 118.247 20.592C118.247 19.824 118.095 19.136 117.791 18.528C117.503 17.92 117.095 17.44 116.567 17.088C116.039 16.736 115.423 16.56 114.719 16.56C114.031 16.56 113.423 16.736 112.895 17.088C112.367 17.44 111.951 17.92 111.647 18.528C111.359 19.136 111.215 19.824 111.215 20.592C111.215 21.344 111.359 22.024 111.647 22.632C111.951 23.24 112.367 23.72 112.895 24.072C113.423 24.424 114.031 24.6 114.719 24.6ZM124.869 14.16C125.333 14.16 125.725 14.36 126.045 14.76L134.061 24.72C134.269 24.976 134.373 25.264 134.373 25.584C134.373 25.984 134.221 26.328 133.917 26.616C133.613 26.904 133.277 27.048 132.909 27.048C132.445 27.048 132.053 26.84 131.733 26.424L123.717 16.464C123.509 16.208 123.405 15.92 123.405 15.6C123.405 15.184 123.549 14.84 123.837 14.568C124.141 14.296 124.485 14.16 124.869 14.16ZM124.893 27.024C124.573 27.024 124.253 26.904 123.933 26.664C123.629 26.408 123.477 26.104 123.477 25.752C123.477 25.432 123.597 25.128 123.837 24.84L127.509 20.352L128.949 22.752L126.045 26.424C125.741 26.824 125.357 27.024 124.893 27.024ZM132.885 14.16C133.269 14.16 133.589 14.296 133.845 14.568C134.117 14.824 134.253 15.12 134.253 15.456C134.253 15.616 134.229 15.776 134.181 15.936C134.133 16.096 134.045 16.248 133.917 16.392L130.293 20.808L128.781 18.72L131.733 14.808C132.053 14.376 132.437 14.16 132.885 14.16Z" fill="white"/>
</svg>
